<svg width="52" height="52" viewBox="0 0 52 52" fill="none" xmlns="http://www.w3.org/2000/svg">
<g filter="url(#filter0_d_0_58)">
<path d="M26 29C27.9333 29 29.5833 28.3167 30.95 26.95C32.3167 25.5833 33 23.9333 33 22C33 20.0667 32.3167 18.4167 30.95 17.05C29.5833 15.6833 27.9333 15 26 15C24.0667 15 22.4167 15.6833 21.05 17.05C19.6833 18.4167 19 20.0667 19 22C19 23.9333 19.6833 25.5833 21.05 26.95C22.4167 28.3167 24.0667 29 26 29ZM26 32C23.2333 32 20.875 31.025 18.925 29.075C16.975 27.125 16 24.7667 16 22C16 19.2333 16.975 16.875 18.925 14.925C20.875 12.975 23.2333 12 26 12C28.7667 12 31.125 12.975 33.075 14.925C35.025 16.875 36 19.2333 36 22C36 24.7667 35.025 27.125 33.075 29.075C31.125 31.025 28.7667 32 26 32ZM5.5 23.5C5.06667 23.5 4.70833 23.3583 4.425 23.075C4.14167 22.7917 4 22.4333 4 22C4 21.5667 4.14167 21.2083 4.425 20.925C4.70833 20.6417 5.06667 20.5 5.5 20.5H10.5C10.9333 20.5 11.2917 20.6417 11.575 20.925C11.8583 21.2083 12 21.5667 12 22C12 22.4333 11.8583 22.7917 11.575 23.075C11.2917 23.3583 10.9333 23.5 10.5 23.5H5.5ZM41.5 23.5C41.0667 23.5 40.7083 23.3583 40.425 23.075C40.1417 22.7917 40 22.4333 40 22C40 21.5667 40.1417 21.2083 40.425 20.925C40.7083 20.6417 41.0667 20.5 41.5 20.5H46.5C46.9333 20.5 47.2917 20.6417 47.575 20.925C47.8583 21.2083 48 21.5667 48 22C48 22.4333 47.8583 22.7917 47.575 23.075C47.2917 23.3583 46.9333 23.5 46.5 23.5H41.5ZM26 8C25.5667 8 25.2083 7.85833 24.925 7.575C24.6417 7.29167 24.5 6.93333 24.5 6.5V1.5C24.5 1.06667 24.6417 0.708333 24.925 0.425C25.2083 0.141667 25.5667 0 26 0C26.4333 0 26.7917 0.141667 27.075 0.425C27.3583 0.708333 27.5 1.06667 27.5 1.5V6.5C27.5 6.93333 27.3583 7.29167 27.075 7.575C26.7917 7.85833 26.4333 8 26 8ZM26 44C25.5667 44 25.2083 43.8583 24.925 43.575C24.6417 43.2917 24.5 42.9333 24.5 42.5V37.5C24.5 37.0667 24.6417 36.7083 24.925 36.425C25.2083 36.1417 25.5667 36 26 36C26.4333 36 26.7917 36.1417 27.075 36.425C27.3583 36.7083 27.5 37.0667 27.5 37.5V42.5C27.5 42.9333 27.3583 43.2917 27.075 43.575C26.7917 43.8583 26.4333 44 26 44ZM14 12.1L11.15 9.3C10.85 9 10.7083 8.64167 10.725 8.225C10.7417 7.80833 10.8833 7.45 11.15 7.15C11.45 6.85 11.8083 6.7 12.225 6.7C12.6417 6.7 13 6.85 13.3 7.15L16.1 10C16.3667 10.3 16.5 10.65 16.5 11.05C16.5 11.45 16.3667 11.7833 16.1 12.05C15.8333 12.35 15.4917 12.5 15.075 12.5C14.6583 12.5 14.3 12.3667 14 12.1ZM38.7 36.85L35.9 34C35.6333 33.7 35.5 33.3417 35.5 32.925C35.5 32.5083 35.65 32.1667 35.95 31.9C36.2167 31.6 36.55 31.45 36.95 31.45C37.35 31.45 37.7 31.6 38 31.9L40.85 34.7C41.15 35 41.2917 35.3583 41.275 35.775C41.2583 36.1917 41.1167 36.55 40.85 36.85C40.55 37.15 40.1917 37.3 39.775 37.3C39.3583 37.3 39 37.15 38.7 36.85ZM35.9 12.1C35.6 11.8 35.45 11.45 35.45 11.05C35.45 10.65 35.6 10.3 35.9 10L38.7 7.15C39 6.85 39.3583 6.70833 39.775 6.725C40.1917 6.74167 40.55 6.88333 40.85 7.15C41.15 7.45 41.3 7.80833 41.3 8.225C41.3 8.64167 41.15 9 40.85 9.3L38 12.1C37.7333 12.3667 37.3917 12.5 36.975 12.5C36.5583 12.5 36.2 12.3667 35.9 12.1ZM11.15 36.85C10.85 36.55 10.7 36.1917 10.7 35.775C10.7 35.3583 10.85 35 11.15 34.7L14 31.9C14.3 31.6 14.65 31.45 15.05 31.45C15.45 31.45 15.8 31.6 16.1 31.9C16.4 32.2 16.55 32.55 16.55 32.95C16.55 33.35 16.4 33.7 16.1 34L13.3 36.85C13 37.15 12.6417 37.2917 12.225 37.275C11.8083 37.2583 11.45 37.1167 11.15 36.85Z" fill="black"/>
</g>
<defs>
<filter id="filter0_d_0_58" x="0" y="0" width="52" height="52" filterUnits="userSpaceOnUse" color-interpolation-filters="sRGB">
<feFlood flood-opacity="0" result="BackgroundImageFix"/>
<feColorMatrix in="SourceAlpha" type="matrix" values="0 0 0 0 0 0 0 0 0 0 0 0 0 0 0 0 0 0 127 0" result="hardAlpha"/>
<feOffset dy="4"/>
<feGaussianBlur stdDeviation="2"/>
<feComposite in2="hardAlpha" operator="out"/>
<feColorMatrix type="matrix" values="0 0 0 0 0 0 0 0 0 0 0 0 0 0 0 0 0 0 0.25 0"/>
<feBlend mode="normal" in2="BackgroundImageFix" result="effect1_dropShadow_0_58"/>
<feBlend mode="normal" in="SourceGraphic" in2="effect1_dropShadow_0_58" result="shape"/>
</filter>
</defs>
</svg>
